<svg width="48" height="48" viewBox="0 0 48 48" fill="none" xmlns="http://www.w3.org/2000/svg">
<path d="M0 18.6667C0 8.35735 8.35735 0 18.6667 0H29.3333C39.6426 0 48 8.35735 48 18.6667V29.3333C48 39.6426 39.6426 48 29.3333 48H18.6667C8.35735 48 0 39.6426 0 29.3333V18.6667Z" fill="#FF444F"/>
<path d="M30.1116 9.94447L28.5638 18.7219H23.1912C18.1788 18.7219 13.4012 22.7829 12.5157 27.7952L12.1409 29.9286C11.2596 34.941 14.6038 39.002 19.6162 39.002H24.0972C27.7504 39.002 31.2307 36.0447 31.8732 32.3917L36 8.99788L30.1116 9.94447ZM26.2994 31.5638C26.1017 32.6923 25.0857 33.6108 23.9572 33.6108H21.2348C18.9819 33.6108 17.4745 31.782 17.8699 29.525L18.1047 28.1947C18.5042 25.9418 20.6541 24.109 22.907 24.109H27.6139L26.2994 31.5638Z" fill="white"/>
</svg>
